<mxfile host="app.diagrams.net" modified="2024-02-15T19:01:07.631Z" agent="Mozilla/5.0 (Windows NT 10.0; Win64; x64) AppleWebKit/537.36 (KHTML, like Gecko) Chrome/121.0.0.0 Safari/537.36" etag="r6GiRfzB24u-9je10YuC" version="23.1.4" type="device" pages="2">
  <diagram name="Página-1" id="GwwbsuIYYyvBAM-cf4rD">
    <mxGraphModel dx="1050" dy="565" grid="1" gridSize="10" guides="1" tooltips="1" connect="1" arrows="1" fold="1" page="1" pageScale="1" pageWidth="827" pageHeight="1169" math="0" shadow="0">
      <root>
        <mxCell id="0" />
        <mxCell id="1" parent="0" />
        <mxCell id="wofZfrd_NkYdQqWlHPXu-3" value="" style="edgeStyle=orthogonalEdgeStyle;rounded=1;orthogonalLoop=1;jettySize=auto;html=1;fillColor=none;" parent="1" source="wofZfrd_NkYdQqWlHPXu-1" target="wofZfrd_NkYdQqWlHPXu-2" edge="1">
          <mxGeometry relative="1" as="geometry" />
        </mxCell>
        <mxCell id="wofZfrd_NkYdQqWlHPXu-1" value="&lt;font style=&quot;vertical-align: inherit;&quot;&gt;&lt;font style=&quot;vertical-align: inherit;&quot;&gt;&lt;font style=&quot;vertical-align: inherit;&quot;&gt;&lt;font style=&quot;vertical-align: inherit;&quot;&gt;&lt;font style=&quot;vertical-align: inherit;&quot;&gt;&lt;font face=&quot;Georgia&quot; style=&quot;vertical-align: inherit; font-size: 20px;&quot;&gt;Início&lt;/font&gt;&lt;/font&gt;&lt;/font&gt;&lt;/font&gt;&lt;/font&gt;&lt;/font&gt;" style="strokeWidth=2;html=1;shape=mxgraph.flowchart.start_1;whiteSpace=wrap;fillColor=#00FF00;rounded=1;" parent="1" vertex="1">
          <mxGeometry x="50" y="20" width="100" height="60" as="geometry" />
        </mxCell>
        <mxCell id="wofZfrd_NkYdQqWlHPXu-5" value="" style="edgeStyle=orthogonalEdgeStyle;rounded=1;orthogonalLoop=1;jettySize=auto;html=1;" parent="1" source="wofZfrd_NkYdQqWlHPXu-2" target="wofZfrd_NkYdQqWlHPXu-4" edge="1">
          <mxGeometry relative="1" as="geometry" />
        </mxCell>
        <mxCell id="wofZfrd_NkYdQqWlHPXu-2" value="&lt;font face=&quot;Georgia&quot; style=&quot;font-size: 15px;&quot;&gt;Recebe o 1° &lt;br&gt;número&lt;/font&gt;" style="shape=parallelogram;perimeter=parallelogramPerimeter;whiteSpace=wrap;html=1;fixedSize=1;fillColor=#FF8000;strokeWidth=2;rounded=1;" parent="1" vertex="1">
          <mxGeometry x="40" y="120" width="120" height="60" as="geometry" />
        </mxCell>
        <mxCell id="wofZfrd_NkYdQqWlHPXu-8" value="" style="edgeStyle=orthogonalEdgeStyle;rounded=1;orthogonalLoop=1;jettySize=auto;html=1;" parent="1" source="wofZfrd_NkYdQqWlHPXu-4" target="wofZfrd_NkYdQqWlHPXu-7" edge="1">
          <mxGeometry relative="1" as="geometry" />
        </mxCell>
        <mxCell id="wofZfrd_NkYdQqWlHPXu-4" value="&lt;font face=&quot;Georgia&quot; style=&quot;font-size: 15px;&quot;&gt;Recebe o 2° &lt;br&gt;número&lt;/font&gt;" style="shape=parallelogram;perimeter=parallelogramPerimeter;whiteSpace=wrap;html=1;fixedSize=1;fillColor=#FF8000;strokeWidth=2;rounded=1;" parent="1" vertex="1">
          <mxGeometry x="40" y="210" width="120" height="60" as="geometry" />
        </mxCell>
        <mxCell id="wofZfrd_NkYdQqWlHPXu-6" style="edgeStyle=orthogonalEdgeStyle;rounded=1;orthogonalLoop=1;jettySize=auto;html=1;exitX=0.5;exitY=1;exitDx=0;exitDy=0;entryX=0.584;entryY=0.993;entryDx=0;entryDy=0;entryPerimeter=0;" parent="1" source="wofZfrd_NkYdQqWlHPXu-4" target="wofZfrd_NkYdQqWlHPXu-4" edge="1">
          <mxGeometry relative="1" as="geometry" />
        </mxCell>
        <mxCell id="wofZfrd_NkYdQqWlHPXu-12" value="" style="edgeStyle=orthogonalEdgeStyle;rounded=1;orthogonalLoop=1;jettySize=auto;html=1;" parent="1" source="wofZfrd_NkYdQqWlHPXu-7" target="wofZfrd_NkYdQqWlHPXu-11" edge="1">
          <mxGeometry relative="1" as="geometry" />
        </mxCell>
        <mxCell id="wofZfrd_NkYdQqWlHPXu-7" value="&lt;font face=&quot;Georgia&quot; style=&quot;font-size: 14px;&quot;&gt;Realiza a soma dos&amp;nbsp;&lt;br&gt;número obtidos&lt;/font&gt;" style="whiteSpace=wrap;html=1;fillColor=#6666FF;strokeWidth=2;rounded=1;" parent="1" vertex="1">
          <mxGeometry x="40" y="310" width="120" height="60" as="geometry" />
        </mxCell>
        <mxCell id="OnCNZ22-RfatHQXrc4Uk-1" value="" style="edgeStyle=orthogonalEdgeStyle;rounded=1;orthogonalLoop=1;jettySize=auto;html=1;" edge="1" parent="1" source="wofZfrd_NkYdQqWlHPXu-11" target="wofZfrd_NkYdQqWlHPXu-13">
          <mxGeometry relative="1" as="geometry" />
        </mxCell>
        <mxCell id="wofZfrd_NkYdQqWlHPXu-11" value="&lt;font face=&quot;Georgia&quot; style=&quot;font-size: 15px;&quot;&gt;Exibe o&lt;br&gt;&amp;nbsp;resultado da soma&amp;nbsp;&lt;/font&gt;" style="strokeWidth=2;html=1;shape=mxgraph.flowchart.display;whiteSpace=wrap;fillColor=#FF8000;rounded=1;" parent="1" vertex="1">
          <mxGeometry x="40" y="410" width="120" height="70" as="geometry" />
        </mxCell>
        <mxCell id="wofZfrd_NkYdQqWlHPXu-13" value="&lt;font face=&quot;Georgia&quot; style=&quot;font-size: 15px;&quot;&gt;fim&lt;/font&gt;" style="strokeWidth=2;html=1;shape=mxgraph.flowchart.start_1;whiteSpace=wrap;fillColor=#FF6666;rounded=1;" parent="1" vertex="1">
          <mxGeometry x="50" y="510" width="100" height="60" as="geometry" />
        </mxCell>
        <mxCell id="OnCNZ22-RfatHQXrc4Uk-4" value="" style="edgeStyle=orthogonalEdgeStyle;rounded=1;orthogonalLoop=1;jettySize=auto;html=1;" edge="1" parent="1" source="OnCNZ22-RfatHQXrc4Uk-2" target="OnCNZ22-RfatHQXrc4Uk-3">
          <mxGeometry relative="1" as="geometry" />
        </mxCell>
        <mxCell id="OnCNZ22-RfatHQXrc4Uk-2" value="&lt;font style=&quot;vertical-align: inherit;&quot;&gt;&lt;font style=&quot;vertical-align: inherit;&quot;&gt;&lt;font style=&quot;vertical-align: inherit;&quot;&gt;&lt;font style=&quot;vertical-align: inherit;&quot;&gt;&lt;font style=&quot;vertical-align: inherit;&quot;&gt;&lt;font face=&quot;Georgia&quot; style=&quot;vertical-align: inherit; font-size: 20px;&quot;&gt;Início&lt;/font&gt;&lt;/font&gt;&lt;/font&gt;&lt;/font&gt;&lt;/font&gt;&lt;/font&gt;" style="strokeWidth=2;html=1;shape=mxgraph.flowchart.start_1;whiteSpace=wrap;fillColor=#00FF00;rounded=1;" vertex="1" parent="1">
          <mxGeometry x="440" y="10" width="100" height="60" as="geometry" />
        </mxCell>
        <mxCell id="OnCNZ22-RfatHQXrc4Uk-6" value="" style="edgeStyle=orthogonalEdgeStyle;rounded=1;orthogonalLoop=1;jettySize=auto;html=1;" edge="1" parent="1" source="OnCNZ22-RfatHQXrc4Uk-3" target="OnCNZ22-RfatHQXrc4Uk-5">
          <mxGeometry relative="1" as="geometry" />
        </mxCell>
        <mxCell id="OnCNZ22-RfatHQXrc4Uk-3" value="&lt;font face=&quot;Georgia&quot;&gt;&lt;span style=&quot;font-size: 15px;&quot;&gt;Obter a 1° &lt;br&gt;nota&lt;/span&gt;&lt;/font&gt;" style="shape=parallelogram;perimeter=parallelogramPerimeter;whiteSpace=wrap;html=1;fixedSize=1;fillColor=#FF8000;strokeWidth=2;rounded=1;" vertex="1" parent="1">
          <mxGeometry x="430" y="100" width="120" height="60" as="geometry" />
        </mxCell>
        <mxCell id="OnCNZ22-RfatHQXrc4Uk-8" value="" style="edgeStyle=orthogonalEdgeStyle;rounded=1;orthogonalLoop=1;jettySize=auto;html=1;" edge="1" parent="1" source="OnCNZ22-RfatHQXrc4Uk-5" target="OnCNZ22-RfatHQXrc4Uk-7">
          <mxGeometry relative="1" as="geometry" />
        </mxCell>
        <mxCell id="OnCNZ22-RfatHQXrc4Uk-5" value="&lt;font face=&quot;Georgia&quot;&gt;&lt;span style=&quot;font-size: 15px;&quot;&gt;Obter a 2° &lt;br&gt;nota&lt;/span&gt;&lt;/font&gt;" style="shape=parallelogram;perimeter=parallelogramPerimeter;whiteSpace=wrap;html=1;fixedSize=1;fillColor=#FF8000;strokeWidth=2;rounded=1;" vertex="1" parent="1">
          <mxGeometry x="430" y="190" width="120" height="60" as="geometry" />
        </mxCell>
        <mxCell id="OnCNZ22-RfatHQXrc4Uk-12" value="" style="edgeStyle=orthogonalEdgeStyle;rounded=1;orthogonalLoop=1;jettySize=auto;html=1;" edge="1" parent="1" source="OnCNZ22-RfatHQXrc4Uk-7" target="OnCNZ22-RfatHQXrc4Uk-11">
          <mxGeometry relative="1" as="geometry" />
        </mxCell>
        <mxCell id="OnCNZ22-RfatHQXrc4Uk-7" value="&lt;font face=&quot;Georgia&quot; style=&quot;font-size: 14px;&quot;&gt;Realiza o cálculo de média&lt;br&gt;&lt;/font&gt;" style="whiteSpace=wrap;html=1;fillColor=#6666FF;strokeWidth=2;rounded=1;" vertex="1" parent="1">
          <mxGeometry x="430" y="280" width="120" height="60" as="geometry" />
        </mxCell>
        <mxCell id="OnCNZ22-RfatHQXrc4Uk-15" value="" style="edgeStyle=orthogonalEdgeStyle;rounded=1;orthogonalLoop=1;jettySize=auto;html=1;entryX=0.5;entryY=0;entryDx=0;entryDy=0;entryPerimeter=0;" edge="1" parent="1" source="OnCNZ22-RfatHQXrc4Uk-11" target="OnCNZ22-RfatHQXrc4Uk-13">
          <mxGeometry relative="1" as="geometry" />
        </mxCell>
        <mxCell id="OnCNZ22-RfatHQXrc4Uk-17" value="" style="edgeStyle=orthogonalEdgeStyle;rounded=1;orthogonalLoop=1;jettySize=auto;html=1;entryX=0.5;entryY=0;entryDx=0;entryDy=0;entryPerimeter=0;" edge="1" parent="1" source="OnCNZ22-RfatHQXrc4Uk-11" target="OnCNZ22-RfatHQXrc4Uk-16">
          <mxGeometry relative="1" as="geometry" />
        </mxCell>
        <mxCell id="OnCNZ22-RfatHQXrc4Uk-11" value="&lt;font style=&quot;font-size: 15px;&quot; face=&quot;Georgia&quot;&gt;Media acima &lt;br&gt;de 7?&lt;/font&gt;" style="rhombus;whiteSpace=wrap;html=1;fillColor=#FFFF32;strokeWidth=2;rounded=1;" vertex="1" parent="1">
          <mxGeometry x="425" y="370" width="130" height="90" as="geometry" />
        </mxCell>
        <mxCell id="OnCNZ22-RfatHQXrc4Uk-22" value="" style="edgeStyle=orthogonalEdgeStyle;rounded=1;orthogonalLoop=1;jettySize=auto;html=1;" edge="1" parent="1" source="OnCNZ22-RfatHQXrc4Uk-13" target="OnCNZ22-RfatHQXrc4Uk-21">
          <mxGeometry relative="1" as="geometry">
            <Array as="points">
              <mxPoint x="655" y="560" />
            </Array>
          </mxGeometry>
        </mxCell>
        <mxCell id="OnCNZ22-RfatHQXrc4Uk-13" value="&lt;font style=&quot;font-size: 15px;&quot; face=&quot;Georgia&quot;&gt;Exibir &quot;Aprovado&quot;&lt;/font&gt;" style="strokeWidth=2;html=1;shape=mxgraph.flowchart.display;whiteSpace=wrap;fillColor=#FF8000;rounded=1;" vertex="1" parent="1">
          <mxGeometry x="600" y="447.5" width="110" height="65" as="geometry" />
        </mxCell>
        <mxCell id="OnCNZ22-RfatHQXrc4Uk-23" value="" style="edgeStyle=orthogonalEdgeStyle;rounded=1;orthogonalLoop=1;jettySize=auto;html=1;" edge="1" parent="1">
          <mxGeometry relative="1" as="geometry">
            <mxPoint x="325" y="510" as="sourcePoint" />
            <mxPoint x="440" y="557.5" as="targetPoint" />
            <Array as="points">
              <mxPoint x="325" y="557.5" />
            </Array>
          </mxGeometry>
        </mxCell>
        <mxCell id="OnCNZ22-RfatHQXrc4Uk-16" value="&lt;font style=&quot;font-size: 15px;&quot; face=&quot;Georgia&quot;&gt;Exibir &quot;Reprovado&quot;&lt;/font&gt;" style="strokeWidth=2;html=1;shape=mxgraph.flowchart.display;whiteSpace=wrap;fillColor=#FF8000;rounded=1;" vertex="1" parent="1">
          <mxGeometry x="270" y="447.5" width="110" height="65" as="geometry" />
        </mxCell>
        <mxCell id="OnCNZ22-RfatHQXrc4Uk-19" value="&lt;div style=&quot;text-align: center;&quot;&gt;&lt;span style=&quot;background-color: initial; font-size: 15px;&quot;&gt;&lt;font face=&quot;Georgia&quot;&gt;SIM&lt;/font&gt;&lt;/span&gt;&lt;/div&gt;&lt;div style=&quot;text-align: center;&quot;&gt;&lt;span style=&quot;background-color: initial; font-size: 15px;&quot;&gt;&lt;font face=&quot;Georgia&quot;&gt;&lt;br&gt;&lt;/font&gt;&lt;/span&gt;&lt;/div&gt;&lt;div style=&quot;text-align: center;&quot;&gt;&lt;span style=&quot;background-color: initial; font-size: 15px;&quot;&gt;&lt;font face=&quot;Georgia&quot;&gt;&lt;br&gt;&lt;/font&gt;&lt;/span&gt;&lt;/div&gt;" style="text;whiteSpace=wrap;html=1;rounded=1;" vertex="1" parent="1">
          <mxGeometry x="580" y="382.5" width="150" height="40" as="geometry" />
        </mxCell>
        <mxCell id="OnCNZ22-RfatHQXrc4Uk-20" value="&lt;div style=&quot;text-align: center;&quot;&gt;&lt;font face=&quot;Georgia&quot;&gt;&lt;span style=&quot;font-size: 15px;&quot;&gt;NÃO&lt;/span&gt;&lt;/font&gt;&lt;/div&gt;" style="text;whiteSpace=wrap;html=1;rounded=1;" vertex="1" parent="1">
          <mxGeometry x="360" y="382.5" width="150" height="40" as="geometry" />
        </mxCell>
        <mxCell id="OnCNZ22-RfatHQXrc4Uk-21" value="&lt;font face=&quot;Georgia&quot; style=&quot;font-size: 15px;&quot;&gt;fim&lt;/font&gt;" style="strokeWidth=2;html=1;shape=mxgraph.flowchart.start_1;whiteSpace=wrap;fillColor=#FF6666;rounded=1;" vertex="1" parent="1">
          <mxGeometry x="440" y="525" width="100" height="60" as="geometry" />
        </mxCell>
      </root>
    </mxGraphModel>
  </diagram>
  <diagram id="xcXewYNvT5n9ZJSah_UN" name="Página-2">
    <mxGraphModel dx="1877" dy="565" grid="1" gridSize="10" guides="1" tooltips="1" connect="1" arrows="1" fold="1" page="1" pageScale="1" pageWidth="827" pageHeight="1169" math="0" shadow="0">
      <root>
        <mxCell id="0" />
        <mxCell id="1" parent="0" />
        <mxCell id="hn-q_Bp5cV6z9h5RrYfC-3" value="" style="edgeStyle=orthogonalEdgeStyle;rounded=1;orthogonalLoop=1;jettySize=auto;html=1;" edge="1" parent="1" source="hn-q_Bp5cV6z9h5RrYfC-1" target="hn-q_Bp5cV6z9h5RrYfC-2">
          <mxGeometry relative="1" as="geometry" />
        </mxCell>
        <mxCell id="hn-q_Bp5cV6z9h5RrYfC-1" value="&lt;font style=&quot;font-size: 15px;&quot; face=&quot;Georgia&quot;&gt;Inicio&lt;/font&gt;" style="strokeWidth=2;html=1;shape=mxgraph.flowchart.start_1;whiteSpace=wrap;rounded=1;fillColor=#00FF00;" vertex="1" parent="1">
          <mxGeometry x="105" y="80" width="100" height="60" as="geometry" />
        </mxCell>
        <mxCell id="2qyHZyYAEf53-ac-eT_X-3" value="" style="edgeStyle=orthogonalEdgeStyle;rounded=1;orthogonalLoop=1;jettySize=auto;html=1;" edge="1" parent="1" source="hn-q_Bp5cV6z9h5RrYfC-2" target="VPPfioX01GyOaS9H5Xfv-3">
          <mxGeometry relative="1" as="geometry" />
        </mxCell>
        <mxCell id="hn-q_Bp5cV6z9h5RrYfC-2" value="&lt;font style=&quot;font-size: 15px;&quot; face=&quot;Georgia&quot;&gt;Solicitar &lt;br&gt;número ao&amp;nbsp;&lt;br&gt;usuário&lt;br&gt;&lt;/font&gt;" style="shape=parallelogram;perimeter=parallelogramPerimeter;whiteSpace=wrap;html=1;fixedSize=1;fillColor=#FF8000;strokeWidth=2;rounded=1;" vertex="1" parent="1">
          <mxGeometry x="95" y="180" width="120" height="60" as="geometry" />
        </mxCell>
        <mxCell id="aRNLvWTKKH1Kqkeg-1Ic-1" value="" style="edgeStyle=orthogonalEdgeStyle;rounded=1;orthogonalLoop=1;jettySize=auto;html=1;" edge="1" parent="1" source="VPPfioX01GyOaS9H5Xfv-3" target="IDS-ncwO7pc4p2b0TCyL-1">
          <mxGeometry relative="1" as="geometry" />
        </mxCell>
        <mxCell id="aRNLvWTKKH1Kqkeg-1Ic-3" value="" style="edgeStyle=orthogonalEdgeStyle;rounded=1;orthogonalLoop=1;jettySize=auto;html=1;" edge="1" parent="1" source="VPPfioX01GyOaS9H5Xfv-3" target="aRNLvWTKKH1Kqkeg-1Ic-2">
          <mxGeometry relative="1" as="geometry" />
        </mxCell>
        <mxCell id="VPPfioX01GyOaS9H5Xfv-3" value="&lt;font style=&quot;font-size: 13px;&quot; face=&quot;Georgia&quot;&gt;O número é maior que 0?&lt;/font&gt;" style="rhombus;whiteSpace=wrap;html=1;fillColor=#FFFF33;strokeWidth=2;rounded=1;" vertex="1" parent="1">
          <mxGeometry x="110" y="270" width="100" height="90" as="geometry" />
        </mxCell>
        <mxCell id="aRNLvWTKKH1Kqkeg-1Ic-8" value="" style="edgeStyle=orthogonalEdgeStyle;rounded=1;orthogonalLoop=1;jettySize=auto;html=1;entryX=0;entryY=0.5;entryDx=0;entryDy=0;entryPerimeter=0;exitX=0.5;exitY=1;exitDx=0;exitDy=0;exitPerimeter=0;" edge="1" parent="1" source="IDS-ncwO7pc4p2b0TCyL-1" target="aRNLvWTKKH1Kqkeg-1Ic-4">
          <mxGeometry relative="1" as="geometry" />
        </mxCell>
        <mxCell id="IDS-ncwO7pc4p2b0TCyL-1" value="&lt;font face=&quot;Georgia&quot; style=&quot;font-size: 15px;&quot;&gt;Exibir &quot;Negativo&quot;&lt;/font&gt;" style="strokeWidth=2;html=1;shape=mxgraph.flowchart.display;whiteSpace=wrap;rounded=1;fillColor=#FF8000;" vertex="1" parent="1">
          <mxGeometry y="370" width="100" height="60" as="geometry" />
        </mxCell>
        <mxCell id="aRNLvWTKKH1Kqkeg-1Ic-5" value="" style="edgeStyle=orthogonalEdgeStyle;rounded=1;orthogonalLoop=1;jettySize=auto;html=1;entryX=1;entryY=0.5;entryDx=0;entryDy=0;entryPerimeter=0;exitX=0.5;exitY=1;exitDx=0;exitDy=0;exitPerimeter=0;" edge="1" parent="1" source="aRNLvWTKKH1Kqkeg-1Ic-2" target="aRNLvWTKKH1Kqkeg-1Ic-4">
          <mxGeometry relative="1" as="geometry" />
        </mxCell>
        <mxCell id="aRNLvWTKKH1Kqkeg-1Ic-2" value="&lt;font style=&quot;font-size: 15px;&quot; face=&quot;Georgia&quot;&gt;Exibir &quot;Positivo&quot;&lt;/font&gt;" style="strokeWidth=2;html=1;shape=mxgraph.flowchart.display;whiteSpace=wrap;rounded=1;fillColor=#FF8000;" vertex="1" parent="1">
          <mxGeometry x="230" y="370" width="100" height="60" as="geometry" />
        </mxCell>
        <mxCell id="aRNLvWTKKH1Kqkeg-1Ic-4" value="&lt;font face=&quot;Georgia&quot; style=&quot;font-size: 15px;&quot;&gt;Fim&lt;/font&gt;" style="strokeWidth=2;html=1;shape=mxgraph.flowchart.start_1;whiteSpace=wrap;rounded=1;fillColor=#FF0000;" vertex="1" parent="1">
          <mxGeometry x="105" y="470" width="100" height="60" as="geometry" />
        </mxCell>
        <mxCell id="aRNLvWTKKH1Kqkeg-1Ic-11" value="" style="edgeStyle=orthogonalEdgeStyle;rounded=1;orthogonalLoop=1;jettySize=auto;html=1;" edge="1" parent="1" source="aRNLvWTKKH1Kqkeg-1Ic-9" target="aRNLvWTKKH1Kqkeg-1Ic-10">
          <mxGeometry relative="1" as="geometry" />
        </mxCell>
        <mxCell id="aRNLvWTKKH1Kqkeg-1Ic-9" value="&lt;font style=&quot;font-size: 15px;&quot; face=&quot;Georgia&quot;&gt;Inicio&lt;/font&gt;" style="strokeWidth=2;html=1;shape=mxgraph.flowchart.start_1;whiteSpace=wrap;rounded=1;fillColor=#00FF00;" vertex="1" parent="1">
          <mxGeometry x="540" y="10" width="100" height="60" as="geometry" />
        </mxCell>
        <mxCell id="2qyHZyYAEf53-ac-eT_X-9" value="" style="edgeStyle=orthogonalEdgeStyle;rounded=1;orthogonalLoop=1;jettySize=auto;html=1;" edge="1" parent="1" source="aRNLvWTKKH1Kqkeg-1Ic-10" target="2qyHZyYAEf53-ac-eT_X-8">
          <mxGeometry relative="1" as="geometry" />
        </mxCell>
        <mxCell id="aRNLvWTKKH1Kqkeg-1Ic-10" value="&lt;font style=&quot;font-size: 15px;&quot; face=&quot;Georgia&quot;&gt;Solicitar 1°&lt;br&gt;número&amp;nbsp;&lt;br&gt;&lt;/font&gt;" style="shape=parallelogram;perimeter=parallelogramPerimeter;whiteSpace=wrap;html=1;fixedSize=1;fillColor=#FF8000;strokeWidth=2;rounded=1;" vertex="1" parent="1">
          <mxGeometry x="530" y="90" width="120" height="60" as="geometry" />
        </mxCell>
        <mxCell id="aRNLvWTKKH1Kqkeg-1Ic-14" value="&lt;font style=&quot;font-size: 15px;&quot; face=&quot;Georgia&quot;&gt;SIM&lt;/font&gt;" style="text;whiteSpace=wrap;html=1;" vertex="1" parent="1">
          <mxGeometry x="230" y="290" width="120" height="40" as="geometry" />
        </mxCell>
        <mxCell id="aRNLvWTKKH1Kqkeg-1Ic-15" value="&lt;font face=&quot;Georgia&quot;&gt;&lt;span style=&quot;font-size: 15px;&quot;&gt;NÃO&lt;/span&gt;&lt;/font&gt;" style="text;whiteSpace=wrap;html=1;" vertex="1" parent="1">
          <mxGeometry x="60" y="290" width="120" height="40" as="geometry" />
        </mxCell>
        <mxCell id="2qyHZyYAEf53-ac-eT_X-12" value="" style="edgeStyle=orthogonalEdgeStyle;rounded=1;orthogonalLoop=1;jettySize=auto;html=1;entryX=0.582;entryY=-0.057;entryDx=0;entryDy=0;entryPerimeter=0;" edge="1" parent="1">
          <mxGeometry relative="1" as="geometry">
            <mxPoint x="540" y="323.4" as="sourcePoint" />
            <mxPoint x="468.1999999999998" y="369.98" as="targetPoint" />
          </mxGeometry>
        </mxCell>
        <mxCell id="2qyHZyYAEf53-ac-eT_X-13" value="" style="edgeStyle=orthogonalEdgeStyle;rounded=1;orthogonalLoop=1;jettySize=auto;html=1;entryX=0.5;entryY=0;entryDx=0;entryDy=0;entryPerimeter=0;" edge="1" parent="1" source="aRNLvWTKKH1Kqkeg-1Ic-16" target="2qyHZyYAEf53-ac-eT_X-7">
          <mxGeometry relative="1" as="geometry" />
        </mxCell>
        <mxCell id="aRNLvWTKKH1Kqkeg-1Ic-16" value="&lt;font style=&quot;font-size: 13px;&quot; face=&quot;Georgia&quot;&gt;&amp;nbsp;1° número é &lt;br&gt;maior que 2°?&lt;/font&gt;" style="rhombus;whiteSpace=wrap;html=1;fillColor=#FFFF33;strokeWidth=2;rounded=1;" vertex="1" parent="1">
          <mxGeometry x="540" y="270" width="100" height="100" as="geometry" />
        </mxCell>
        <mxCell id="2qyHZyYAEf53-ac-eT_X-18" value="" style="edgeStyle=orthogonalEdgeStyle;rounded=1;orthogonalLoop=1;jettySize=auto;html=1;entryX=1;entryY=0.5;entryDx=0;entryDy=0;entryPerimeter=0;exitX=0.5;exitY=1;exitDx=0;exitDy=0;exitPerimeter=0;" edge="1" parent="1" source="2qyHZyYAEf53-ac-eT_X-7" target="2qyHZyYAEf53-ac-eT_X-14">
          <mxGeometry relative="1" as="geometry" />
        </mxCell>
        <mxCell id="2qyHZyYAEf53-ac-eT_X-7" value="&lt;font face=&quot;Georgia&quot; style=&quot;font-size: 14px;&quot;&gt;Exibir &quot;1° numero é maior&quot;&lt;/font&gt;" style="strokeWidth=2;html=1;shape=mxgraph.flowchart.display;whiteSpace=wrap;rounded=1;fillColor=#FF8000;" vertex="1" parent="1">
          <mxGeometry x="670" y="370" width="100" height="60" as="geometry" />
        </mxCell>
        <mxCell id="2qyHZyYAEf53-ac-eT_X-10" value="" style="edgeStyle=orthogonalEdgeStyle;rounded=1;orthogonalLoop=1;jettySize=auto;html=1;" edge="1" parent="1" source="2qyHZyYAEf53-ac-eT_X-8" target="aRNLvWTKKH1Kqkeg-1Ic-16">
          <mxGeometry relative="1" as="geometry" />
        </mxCell>
        <mxCell id="2qyHZyYAEf53-ac-eT_X-8" value="&lt;font style=&quot;font-size: 15px;&quot; face=&quot;Georgia&quot;&gt;Solicitar 2°&lt;br&gt;número&amp;nbsp;&lt;br&gt;&lt;/font&gt;" style="shape=parallelogram;perimeter=parallelogramPerimeter;whiteSpace=wrap;html=1;fixedSize=1;fillColor=#FF8000;strokeWidth=2;rounded=1;" vertex="1" parent="1">
          <mxGeometry x="530" y="180" width="120" height="60" as="geometry" />
        </mxCell>
        <mxCell id="2qyHZyYAEf53-ac-eT_X-15" value="" style="edgeStyle=orthogonalEdgeStyle;rounded=1;orthogonalLoop=1;jettySize=auto;html=1;entryX=0;entryY=0.333;entryDx=0;entryDy=0;entryPerimeter=0;exitX=0.5;exitY=1;exitDx=0;exitDy=0;exitPerimeter=0;" edge="1" parent="1" source="2qyHZyYAEf53-ac-eT_X-11" target="2qyHZyYAEf53-ac-eT_X-14">
          <mxGeometry relative="1" as="geometry">
            <mxPoint x="460" y="440" as="sourcePoint" />
            <mxPoint x="556.5999999999999" y="517.3800000000001" as="targetPoint" />
            <Array as="points">
              <mxPoint x="460" y="490" />
              <mxPoint x="540" y="490" />
            </Array>
          </mxGeometry>
        </mxCell>
        <mxCell id="2qyHZyYAEf53-ac-eT_X-11" value="&lt;font face=&quot;Georgia&quot; style=&quot;font-size: 14px;&quot;&gt;Exibir &quot;2° numero é maior&quot;&lt;/font&gt;" style="strokeWidth=2;html=1;shape=mxgraph.flowchart.display;whiteSpace=wrap;rounded=1;fillColor=#FF8000;" vertex="1" parent="1">
          <mxGeometry x="410" y="370" width="100" height="60" as="geometry" />
        </mxCell>
        <mxCell id="2qyHZyYAEf53-ac-eT_X-14" value="&lt;font face=&quot;Georgia&quot; style=&quot;font-size: 15px;&quot;&gt;Fim&lt;/font&gt;" style="strokeWidth=2;html=1;shape=mxgraph.flowchart.start_1;whiteSpace=wrap;rounded=1;fillColor=#FF0000;" vertex="1" parent="1">
          <mxGeometry x="540" y="470" width="100" height="50" as="geometry" />
        </mxCell>
        <mxCell id="2qyHZyYAEf53-ac-eT_X-20" value="&lt;font style=&quot;font-size: 15px;&quot; face=&quot;Georgia&quot;&gt;SIM&lt;/font&gt;" style="text;whiteSpace=wrap;html=1;" vertex="1" parent="1">
          <mxGeometry x="660" y="295" width="120" height="40" as="geometry" />
        </mxCell>
        <mxCell id="2qyHZyYAEf53-ac-eT_X-21" value="&lt;font face=&quot;Georgia&quot;&gt;&lt;span style=&quot;font-size: 15px;&quot;&gt;NÃO&lt;/span&gt;&lt;/font&gt;" style="text;whiteSpace=wrap;html=1;" vertex="1" parent="1">
          <mxGeometry x="490" y="295" width="120" height="40" as="geometry" />
        </mxCell>
        <mxCell id="2qyHZyYAEf53-ac-eT_X-25" value="" style="edgeStyle=orthogonalEdgeStyle;rounded=1;orthogonalLoop=1;jettySize=auto;html=1;" edge="1" parent="1" source="2qyHZyYAEf53-ac-eT_X-23" target="2qyHZyYAEf53-ac-eT_X-24">
          <mxGeometry relative="1" as="geometry" />
        </mxCell>
        <mxCell id="2qyHZyYAEf53-ac-eT_X-23" value="&lt;font style=&quot;font-size: 15px;&quot; face=&quot;Georgia&quot;&gt;Inicio&lt;/font&gt;" style="strokeWidth=2;html=1;shape=mxgraph.flowchart.start_1;whiteSpace=wrap;rounded=1;fillColor=#00FF00;" vertex="1" parent="1">
          <mxGeometry x="350" y="585" width="100" height="60" as="geometry" />
        </mxCell>
        <mxCell id="2qyHZyYAEf53-ac-eT_X-27" value="" style="edgeStyle=orthogonalEdgeStyle;rounded=1;orthogonalLoop=1;jettySize=auto;html=1;" edge="1" parent="1" source="2qyHZyYAEf53-ac-eT_X-24" target="2qyHZyYAEf53-ac-eT_X-26">
          <mxGeometry relative="1" as="geometry" />
        </mxCell>
        <mxCell id="2qyHZyYAEf53-ac-eT_X-24" value="&lt;font style=&quot;font-size: 15px;&quot; face=&quot;Georgia&quot;&gt;Solicitar &lt;br&gt;a idade do&amp;nbsp;&lt;br&gt;usuário&lt;br&gt;&lt;/font&gt;" style="shape=parallelogram;perimeter=parallelogramPerimeter;whiteSpace=wrap;html=1;fixedSize=1;fillColor=#FF8000;strokeWidth=2;rounded=1;" vertex="1" parent="1">
          <mxGeometry x="340" y="680" width="120" height="60" as="geometry" />
        </mxCell>
        <mxCell id="2qyHZyYAEf53-ac-eT_X-29" value="" style="edgeStyle=orthogonalEdgeStyle;rounded=1;orthogonalLoop=1;jettySize=auto;html=1;" edge="1" parent="1" source="2qyHZyYAEf53-ac-eT_X-26" target="2qyHZyYAEf53-ac-eT_X-28">
          <mxGeometry relative="1" as="geometry" />
        </mxCell>
        <mxCell id="2qyHZyYAEf53-ac-eT_X-31" value="" style="edgeStyle=orthogonalEdgeStyle;rounded=1;orthogonalLoop=1;jettySize=auto;html=1;" edge="1" parent="1" source="2qyHZyYAEf53-ac-eT_X-26" target="2qyHZyYAEf53-ac-eT_X-30">
          <mxGeometry relative="1" as="geometry" />
        </mxCell>
        <mxCell id="2qyHZyYAEf53-ac-eT_X-26" value="&lt;font style=&quot;font-size: 13px;&quot; face=&quot;Georgia&quot;&gt;É maior &lt;br&gt;que 16?&lt;/font&gt;" style="rhombus;whiteSpace=wrap;html=1;fillColor=#FFFF33;strokeWidth=2;rounded=1;" vertex="1" parent="1">
          <mxGeometry x="350" y="780" width="100" height="90" as="geometry" />
        </mxCell>
        <mxCell id="2qyHZyYAEf53-ac-eT_X-33" value="" style="edgeStyle=orthogonalEdgeStyle;rounded=1;orthogonalLoop=1;jettySize=auto;html=1;exitX=0;exitY=0.5;exitDx=0;exitDy=0;" edge="1" parent="1" source="2qyHZyYAEf53-ac-eT_X-28" target="2qyHZyYAEf53-ac-eT_X-32">
          <mxGeometry relative="1" as="geometry" />
        </mxCell>
        <mxCell id="2qyHZyYAEf53-ac-eT_X-35" value="" style="edgeStyle=orthogonalEdgeStyle;rounded=1;orthogonalLoop=1;jettySize=auto;html=1;" edge="1" parent="1" source="2qyHZyYAEf53-ac-eT_X-28" target="2qyHZyYAEf53-ac-eT_X-34">
          <mxGeometry relative="1" as="geometry" />
        </mxCell>
        <mxCell id="2qyHZyYAEf53-ac-eT_X-28" value="&lt;font style=&quot;font-size: 13px;&quot; face=&quot;Georgia&quot;&gt;É maior &lt;br&gt;que 18?&lt;/font&gt;" style="rhombus;whiteSpace=wrap;html=1;fillColor=#FFFF33;strokeWidth=2;rounded=1;" vertex="1" parent="1">
          <mxGeometry x="520" y="880" width="100" height="90" as="geometry" />
        </mxCell>
        <mxCell id="2qyHZyYAEf53-ac-eT_X-38" value="" style="edgeStyle=orthogonalEdgeStyle;rounded=1;orthogonalLoop=1;jettySize=auto;html=1;entryX=0;entryY=0.5;entryDx=0;entryDy=0;entryPerimeter=0;exitX=0.5;exitY=1;exitDx=0;exitDy=0;exitPerimeter=0;" edge="1" parent="1" source="2qyHZyYAEf53-ac-eT_X-30" target="2qyHZyYAEf53-ac-eT_X-37">
          <mxGeometry relative="1" as="geometry" />
        </mxCell>
        <mxCell id="2qyHZyYAEf53-ac-eT_X-30" value="Não pode" style="strokeWidth=2;html=1;shape=mxgraph.flowchart.display;whiteSpace=wrap;rounded=1;fillColor=#FF8000;" vertex="1" parent="1">
          <mxGeometry x="200" y="900" width="100" height="60" as="geometry" />
        </mxCell>
        <mxCell id="2qyHZyYAEf53-ac-eT_X-40" value="" style="edgeStyle=orthogonalEdgeStyle;rounded=1;orthogonalLoop=1;jettySize=auto;html=1;" edge="1" parent="1" source="2qyHZyYAEf53-ac-eT_X-32" target="2qyHZyYAEf53-ac-eT_X-37">
          <mxGeometry relative="1" as="geometry" />
        </mxCell>
        <mxCell id="2qyHZyYAEf53-ac-eT_X-32" value="Opcional" style="strokeWidth=2;html=1;shape=mxgraph.flowchart.display;whiteSpace=wrap;rounded=1;fillColor=#FF8000;" vertex="1" parent="1">
          <mxGeometry x="400" y="980" width="100" height="60" as="geometry" />
        </mxCell>
        <mxCell id="2qyHZyYAEf53-ac-eT_X-39" value="" style="edgeStyle=orthogonalEdgeStyle;rounded=1;orthogonalLoop=1;jettySize=auto;html=1;entryX=1;entryY=0.5;entryDx=0;entryDy=0;entryPerimeter=0;exitX=0.5;exitY=1;exitDx=0;exitDy=0;exitPerimeter=0;" edge="1" parent="1" source="2qyHZyYAEf53-ac-eT_X-34" target="2qyHZyYAEf53-ac-eT_X-37">
          <mxGeometry relative="1" as="geometry" />
        </mxCell>
        <mxCell id="2qyHZyYAEf53-ac-eT_X-34" value="Obrigatório" style="strokeWidth=2;html=1;shape=mxgraph.flowchart.display;whiteSpace=wrap;rounded=1;fillColor=#FF8000;" vertex="1" parent="1">
          <mxGeometry x="650" y="980" width="100" height="60" as="geometry" />
        </mxCell>
        <mxCell id="2qyHZyYAEf53-ac-eT_X-37" value="&lt;font face=&quot;Georgia&quot; style=&quot;font-size: 15px;&quot;&gt;Fim&lt;/font&gt;" style="strokeWidth=2;html=1;shape=mxgraph.flowchart.start_1;whiteSpace=wrap;rounded=1;fillColor=#FF0000;" vertex="1" parent="1">
          <mxGeometry x="400" y="1119" width="100" height="50" as="geometry" />
        </mxCell>
        <mxCell id="2qyHZyYAEf53-ac-eT_X-41" value="&lt;font style=&quot;font-size: 30px;&quot; face=&quot;Georgia&quot;&gt;&lt;span style=&quot;&quot;&gt;1°&lt;br&gt;&lt;br&gt;&lt;/span&gt;&lt;/font&gt;" style="text;whiteSpace=wrap;html=1;" vertex="1" parent="1">
          <mxGeometry x="85" y="20" width="120" height="40" as="geometry" />
        </mxCell>
        <mxCell id="2qyHZyYAEf53-ac-eT_X-42" value="&lt;font face=&quot;Georgia&quot;&gt;&lt;span style=&quot;font-size: 30px;&quot;&gt;2°&lt;br&gt;&lt;/span&gt;&lt;/font&gt;" style="text;whiteSpace=wrap;html=1;" vertex="1" parent="1">
          <mxGeometry x="460" y="20" width="120" height="40" as="geometry" />
        </mxCell>
        <mxCell id="2qyHZyYAEf53-ac-eT_X-43" value="&lt;font style=&quot;font-size: 30px;&quot; face=&quot;Georgia&quot;&gt;&lt;span style=&quot;&quot;&gt;3°&lt;br&gt;&lt;br&gt;&lt;/span&gt;&lt;/font&gt;" style="text;whiteSpace=wrap;html=1;" vertex="1" parent="1">
          <mxGeometry x="280" y="580" width="120" height="40" as="geometry" />
        </mxCell>
      </root>
    </mxGraphModel>
  </diagram>
</mxfile>
